<svg width="16" height="16" viewBox="0 0 16 16" fill="none" xmlns="http://www.w3.org/2000/svg">
<path d="M4.75 15.5C4.3375 15.5 3.98438 15.3531 3.69063 15.0594C3.39688 14.7656 3.25 14.4125 3.25 14C3.25 13.5875 3.39688 13.2344 3.69063 12.9406C3.98438 12.6469 4.3375 12.5 4.75 12.5C5.1625 12.5 5.51562 12.6469 5.80938 12.9406C6.10313 13.2344 6.25 13.5875 6.25 14C6.25 14.4125 6.10313 14.7656 5.80938 15.0594C5.51562 15.3531 5.1625 15.5 4.75 15.5ZM12.25 15.5C11.8375 15.5 11.4844 15.3531 11.1906 15.0594C10.8969 14.7656 10.75 14.4125 10.75 14C10.75 13.5875 10.8969 13.2344 11.1906 12.9406C11.4844 12.6469 11.8375 12.5 12.25 12.5C12.6625 12.5 13.0156 12.6469 13.3094 12.9406C13.6031 13.2344 13.75 13.5875 13.75 14C13.75 14.4125 13.6031 14.7656 13.3094 15.0594C13.0156 15.3531 12.6625 15.5 12.25 15.5ZM4.1125 3.5L5.9125 7.25H11.1625L13.225 3.5H4.1125ZM3.4 2H14.4625C14.75 2 14.9688 2.12813 15.1188 2.38438C15.2688 2.64062 15.275 2.9 15.1375 3.1625L12.475 7.9625C12.3375 8.2125 12.1531 8.40625 11.9219 8.54375C11.6906 8.68125 11.4375 8.75 11.1625 8.75H5.575L4.75 10.25H13.75V11.75H4.75C4.1875 11.75 3.7625 11.5031 3.475 11.0094C3.1875 10.5156 3.175 10.025 3.4375 9.5375L4.45 7.7L1.75 2H0.25V0.5H2.6875L3.4 2Z" fill="#F9F9F9"/>
</svg>
